<svg aria-hidden="true" style="position: absolute; width: 0; height: 0; overflow: hidden;" version="1.1" xmlns="http://www.w3.org/2000/svg" xmlns:xlink="http://www.w3.org/1999/xlink">
<defs>
<symbol id="logo-stork" viewBox="0 0 103 32">
<path fill="#33adc1" style="fill: var(--color1, #33adc1)" d="M31.596 15.798c0 8.725-7.073 15.798-15.798 15.798-0.328 0-0.653-0.010-0.975-0.030-1.352-0.082-2.658-0.335-3.897-0.736-0.471-0.152-0.933-0.327-1.384-0.521-5.614-2.423-9.543-8.008-9.543-14.511 0-8.725 7.073-15.798 15.798-15.798s15.798 7.073 15.798 15.798z"></path>
<path fill="#eae0d3" style="fill: var(--color2, #eae0d3)" d="M14.824 31.567c-1.866-0.113-3.644-0.551-5.28-1.257 6.118-8.248-4.473-16.104-4.473-16.104l5.34-1.318c0-0 11.428 6.971 4.414 18.679z"></path>
<path fill="#d6c8b0" style="fill: var(--color3, #d6c8b0)" d="M10.927 30.831c-0.471-0.152-0.933-0.327-1.384-0.521 6.118-8.248-4.473-16.104-4.473-16.104l1.543-0.381c0.374 0.28 0.898 0.644 1.432 1.144 2.786 2.602 6.827 8.139 2.881 15.862z"></path>
<path fill="#eae0d3" style="fill: var(--color2, #eae0d3)" d="M14.221 8.792c0 3.411-2.765 6.176-6.176 6.176s-6.176-2.765-6.176-6.176c0-0.509 0.061-1.004 0.178-1.477s0.287-0.925 0.505-1.348l-2.552-2.552 4.182 0.559-2.145-2.66 4.905 1.401-0.535-2.714c0 0 4.267 2.36 6.294 4.734 0.154 0.176 0.297 0.361 0.43 0.554 0.687 0.996 1.091 2.203 1.091 3.505z"></path>
<path fill="#2f373b" style="fill: var(--color4, #2f373b)" d="M11.365 7.531c0 0.835-0.677 1.513-1.512 1.513s-1.513-0.677-1.513-1.513c0-0.836 0.677-1.513 1.513-1.513s1.512 0.677 1.512 1.513z"></path>
<path fill="#ff648d" style="fill: var(--color5, #ff648d)" d="M25.543 8.531c-0.621 0.324-1.275 0.251-1.801 0.077-0.615-0.203-1.052-0.542-1.052-0.542s-2.212-2.171-0.51-3.116c0.514-0.285 0.93-0.284 1.26-0.142h0.001c0.764 0.328 1.071 1.402 1.071 1.402s0.616-1.597 1.978-1.113c1.362 0.483 0.399 2.731-0.947 3.435z"></path>
<path fill="#ea2f69" style="fill: var(--color6, #ea2f69)" d="M23.742 8.608c-0.615-0.203-1.052-0.542-1.052-0.542s-2.212-2.171-0.51-3.116c0.514-0.285 0.93-0.284 1.26-0.142-0.753-0.042-0.777 2.733 0.302 3.801z"></path>
<path fill="#fff" style="fill: var(--color7, #fff)" d="M10.934 7.048c0 0.261-0.212 0.473-0.473 0.473s-0.473-0.212-0.473-0.473c0-0.261 0.212-0.472 0.473-0.472s0.473 0.212 0.473 0.472z"></path>
<path fill="#ff648d" style="fill: var(--color5, #ff648d)" d="M23.243 9.26c0 2.304-6.271 9.3-2.175 12.199 1.024 0.725 2.154 0.961 3.274 0.908 1.119 0.053 2.25-0.183 3.274-0.908 4.096-2.899-2.175-9.894-2.175-12.199z"></path>
<path fill="#ea2f69" style="fill: var(--color6, #ea2f69)" d="M24.173 22.372c-1.065 0.023-2.132-0.225-3.105-0.913-4.097-2.899 2.175-9.895 2.175-12.199h0.672c0 2.304-2.437 9.3-0.845 12.199 0.346 0.631 0.724 0.892 1.103 0.913z"></path>
<path fill="#ea2f69" style="fill: var(--color6, #ea2f69)" d="M24.173 22.372c0.056-0.001 0.112-0.003 0.169-0.005-0.056 0.007-0.112 0.009-0.169 0.005z"></path>
<path fill="#ea2f69" style="fill: var(--color6, #ea2f69)" d="M24.511 22.372c-0.056 0.004-0.112 0.002-0.168-0.005 0.056 0.002 0.112 0.005 0.168 0.005z"></path>
<path fill="#ffd62c" style="fill: var(--color8, #ffd62c)" d="M28.464 8.855l-15.629 2.584c0 0-0.546-0.827-0.744-1.924-0.177-0.978-0.077-2.171 0.933-3.181l15.44 2.521z"></path>
<path fill="#ffb92e" style="fill: var(--color9, #ffb92e)" d="M28.465 8.854l-15.63 2.584c0 0-0.546-0.827-0.744-1.924l16.374-0.66z"></path>
<path fill="#d6c8b0" style="fill: var(--color3, #d6c8b0)" d="M8.045 14.967c-3.411 0-6.176-2.765-6.176-6.176 0-0.509 0.061-1.004 0.178-1.477s0.287-0.925 0.505-1.348l-2.552-2.552 4.182 0.559-2.145-2.66 5 2.815c0 0-3.088 1.135-3.088 4.727s4.097 6.113 4.097 6.113z"></path>
<path fill="#000" style="fill: var(--color10, #000)" d="M96.235 22.673c-0.853 0-1.618-0.21-2.295-0.631-0.677-0.432-1.215-1.010-1.612-1.734-0.385-0.736-0.578-1.565-0.578-2.488s0.21-1.752 0.631-2.488c0.432-0.736 1.010-1.314 1.734-1.734 0.736-0.432 1.559-0.648 2.47-0.648s1.728 0.216 2.453 0.648c0.724 0.421 1.296 0.999 1.717 1.734 0.432 0.736 0.648 1.565 0.648 2.488h-0.683c0 0.923-0.199 1.752-0.596 2.488-0.385 0.724-0.917 1.302-1.594 1.734-0.677 0.42-1.442 0.631-2.295 0.631zM96.585 21.097c0.596 0 1.127-0.14 1.594-0.42 0.467-0.292 0.835-0.683 1.104-1.174 0.269-0.502 0.403-1.063 0.403-1.682 0-0.631-0.134-1.191-0.403-1.682-0.269-0.502-0.637-0.893-1.104-1.174-0.467-0.292-0.999-0.438-1.594-0.438-0.584 0-1.115 0.146-1.594 0.438-0.467 0.28-0.841 0.671-1.121 1.174-0.269 0.491-0.403 1.051-0.403 1.682 0 0.619 0.134 1.18 0.403 1.682 0.28 0.491 0.654 0.882 1.121 1.174 0.479 0.28 1.010 0.42 1.594 0.42zM100.509 22.621c-0.257 0-0.473-0.082-0.648-0.245-0.163-0.175-0.245-0.391-0.245-0.648v-2.68l0.333-1.857 1.454 0.631v3.907c0 0.257-0.088 0.473-0.263 0.648-0.163 0.163-0.374 0.245-0.631 0.245z"></path>
<path fill="#000" style="fill: var(--color10, #000)" d="M90.468 22.393c-0.152 0.14-0.368 0.21-0.648 0.21-0.269-0.012-0.479-0.093-0.631-0.245l-4.257-4.572 4.012-4.485c0.152-0.164 0.362-0.257 0.631-0.28 0.28-0.023 0.496 0.035 0.648 0.175 0.175 0.164 0.275 0.35 0.298 0.561 0.023 0.199-0.041 0.38-0.193 0.543l-3.171 3.399 3.364 3.609c0.152 0.152 0.228 0.333 0.228 0.543 0 0.199-0.093 0.38-0.28 0.543zM83.531 22.621c-0.257 0-0.461-0.082-0.613-0.245-0.152-0.175-0.228-0.391-0.228-0.648v-7.813c0-0.269 0.076-0.485 0.228-0.648s0.356-0.245 0.613-0.245c0.269 0 0.485 0.082 0.648 0.245 0.175 0.163 0.263 0.38 0.263 0.648v2.926h2.242v1.647h-2.242v3.241c0 0.257-0.088 0.473-0.263 0.648-0.163 0.163-0.38 0.245-0.648 0.245z"></path>
<path fill="#000" style="fill: var(--color10, #000)" d="M76.136 22.673c-0.969 0-1.834-0.204-2.593-0.613-0.747-0.421-1.337-0.993-1.769-1.717-0.42-0.736-0.631-1.577-0.631-2.523 0-0.958 0.199-1.799 0.596-2.523 0.409-0.736 0.969-1.308 1.682-1.717 0.712-0.42 1.53-0.631 2.453-0.631 0.911 0 1.693 0.204 2.348 0.613 0.654 0.397 1.15 0.952 1.489 1.664 0.35 0.701 0.525 1.512 0.525 2.435 0 0.222-0.076 0.409-0.228 0.561-0.152 0.14-0.345 0.21-0.578 0.21h-7.060v-1.401h7.007l-0.718 0.491c-0.012-0.584-0.128-1.104-0.35-1.559-0.222-0.467-0.537-0.835-0.946-1.104s-0.905-0.403-1.489-0.403c-0.666 0-1.238 0.146-1.717 0.438-0.467 0.292-0.823 0.695-1.069 1.209-0.245 0.502-0.368 1.075-0.368 1.717s0.146 1.215 0.438 1.717c0.292 0.502 0.695 0.899 1.209 1.191s1.104 0.438 1.769 0.438c0.362 0 0.73-0.064 1.104-0.193 0.385-0.14 0.695-0.298 0.928-0.473 0.175-0.129 0.362-0.193 0.561-0.193 0.21-0.012 0.391 0.047 0.543 0.175 0.199 0.175 0.304 0.368 0.315 0.578s-0.082 0.391-0.28 0.543c-0.397 0.315-0.893 0.572-1.489 0.771-0.584 0.199-1.145 0.298-1.682 0.298z"></path>
<path fill="#000" style="fill: var(--color10, #000)" d="M64.768 13.039c0.175 0 0.333 0.047 0.473 0.14s0.251 0.239 0.333 0.438l3.609 7.831c0.105 0.234 0.117 0.444 0.035 0.631-0.082 0.175-0.222 0.309-0.421 0.403-0.257 0.117-0.479 0.146-0.666 0.088s-0.345-0.204-0.473-0.438l-3.293-7.48h0.893l-3.399 7.48c-0.105 0.222-0.263 0.368-0.473 0.438-0.199 0.058-0.42 0.029-0.666-0.088-0.222-0.105-0.38-0.245-0.473-0.42-0.082-0.175-0.064-0.38 0.053-0.613l3.626-7.831c0.175-0.385 0.455-0.578 0.841-0.578z"></path>
<path fill="#000" style="fill: var(--color10, #000)" d="M54.623 22.673c-0.969 0-1.834-0.204-2.593-0.613-0.747-0.421-1.337-0.993-1.769-1.717-0.421-0.736-0.631-1.577-0.631-2.523 0-0.958 0.199-1.799 0.596-2.523 0.409-0.736 0.969-1.308 1.682-1.717 0.712-0.42 1.53-0.631 2.453-0.631 0.911 0 1.693 0.204 2.347 0.613 0.654 0.397 1.15 0.952 1.489 1.664 0.35 0.701 0.526 1.512 0.526 2.435 0 0.222-0.076 0.409-0.228 0.561-0.152 0.14-0.345 0.21-0.578 0.21h-7.060v-1.401h7.007l-0.718 0.491c-0.012-0.584-0.129-1.104-0.35-1.559-0.222-0.467-0.537-0.835-0.946-1.104s-0.905-0.403-1.489-0.403c-0.666 0-1.238 0.146-1.717 0.438-0.467 0.292-0.823 0.695-1.069 1.209-0.245 0.502-0.368 1.075-0.368 1.717s0.146 1.215 0.438 1.717c0.292 0.502 0.695 0.899 1.209 1.191s1.104 0.438 1.769 0.438c0.362 0 0.73-0.064 1.104-0.193 0.385-0.14 0.695-0.298 0.929-0.473 0.175-0.129 0.362-0.193 0.561-0.193 0.21-0.012 0.391 0.047 0.543 0.175 0.199 0.175 0.304 0.368 0.315 0.578s-0.082 0.391-0.28 0.543c-0.397 0.315-0.893 0.572-1.489 0.771-0.584 0.199-1.145 0.298-1.682 0.298z"></path>
<path fill="#000" style="fill: var(--color10, #000)" d="M37.501 22.604c-0.327 0-0.578-0.14-0.753-0.42s-0.193-0.578-0.053-0.893l4.923-11.755c0.175-0.409 0.461-0.613 0.858-0.613 0.42 0 0.707 0.204 0.858 0.613l4.94 11.79c0.129 0.327 0.111 0.625-0.053 0.893-0.152 0.257-0.397 0.385-0.736 0.385-0.175 0-0.345-0.047-0.508-0.14-0.152-0.105-0.263-0.245-0.333-0.42l-4.38-10.791h0.561l-4.485 10.791c-0.082 0.187-0.204 0.327-0.368 0.42-0.152 0.093-0.309 0.14-0.473 0.14z"></path>
</symbol>
<symbol id="menu" viewBox="0 0 32 32">
<path d="M5.333 8h21.333v2.667h-21.333v-2.667zM5.333 14.667h21.333v2.667h-21.333v-2.667zM5.333 21.333h21.333v2.667h-21.333v-2.667z"></path>
</symbol>
<symbol id="icon-burger" viewBox="0 0 32 32">
<path d="M5.333 8h21.333v2.667h-21.333v-2.667zM5.333 14.667h21.333v2.667h-21.333v-2.667zM5.333 21.333h21.333v2.667h-21.333v-2.667z"></path>
</symbol>
<symbol id="account_circle" viewBox="0 0 32 32">
<path d="M7.432 23.411c1.395-0.967 2.778-1.709 4.151-2.226s2.846-0.775 4.421-0.775c1.575 0 3.055 0.26 4.442 0.781s2.771 1.261 4.156 2.22c0.967-1.205 1.653-2.407 2.056-3.605s0.605-2.467 0.605-3.807c0-3.197-1.077-5.873-3.233-8.029s-4.831-3.233-8.028-3.233c-3.196 0-5.873 1.078-8.029 3.233s-3.234 4.832-3.234 8.029c0 1.34 0.206 2.608 0.618 3.805s1.104 2.399 2.076 3.608zM15.994 17.055c-1.301 0-2.395-0.445-3.28-1.335s-1.328-1.984-1.328-3.282 0.445-2.391 1.334-3.28c0.89-0.888 1.985-1.333 3.287-1.333s2.395 0.446 3.28 1.339c0.885 0.892 1.328 1.988 1.328 3.286s-0.445 2.39-1.334 3.276c-0.889 0.886-1.985 1.328-3.287 1.328zM16.011 29.532c-1.856 0-3.607-0.355-5.252-1.064s-3.084-1.68-4.315-2.911c-1.232-1.231-2.202-2.667-2.912-4.308s-1.064-3.393-1.064-5.259c0-1.859 0.355-3.608 1.066-5.245s1.681-3.071 2.911-4.301c1.23-1.23 2.665-2.201 4.306-2.915s3.394-1.070 5.26-1.070c1.859 0 3.608 0.357 5.245 1.070s3.071 1.685 4.301 2.915c1.23 1.23 2.201 2.664 2.915 4.303s1.070 3.386 1.070 5.242c0 1.856-0.357 3.607-1.070 5.253s-1.685 3.084-2.915 4.314c-1.23 1.23-2.664 2.2-4.303 2.911s-3.386 1.066-5.242 1.066zM16 27.261c1.206 0 2.379-0.172 3.52-0.517s2.277-0.954 3.41-1.827c-1.139-0.795-2.281-1.397-3.427-1.805s-2.314-0.613-3.503-0.613-2.356 0.205-3.499 0.613c-1.143 0.409-2.284 1.011-3.423 1.805 1.133 0.873 2.269 1.482 3.406 1.827s2.309 0.517 3.516 0.517zM16 14.959c0.739 0 1.343-0.233 1.814-0.701s0.705-1.072 0.705-1.814-0.235-1.348-0.705-1.818c-0.47-0.47-1.075-0.705-1.814-0.705s-1.343 0.235-1.814 0.705c-0.47 0.47-0.705 1.076-0.705 1.818s0.235 1.347 0.705 1.814c0.47 0.467 1.075 0.701 1.814 0.701z"></path>
</symbol>
<symbol id="book_2" viewBox="0 0 32 32">
<path d="M7.349 21.269c0.316-0.202 0.659-0.356 1.030-0.461s0.768-0.158 1.192-0.158h1.112v-15.976h-1.112c-0.624 0-1.151 0.216-1.579 0.647s-0.643 0.959-0.643 1.583v14.365zM12.898 20.65h11.761v-15.976h-11.761v15.976zM9.571 29.532c-1.228 0-2.275-0.432-3.14-1.297s-1.297-1.911-1.297-3.14v-18.191c0-1.23 0.432-2.279 1.297-3.145s1.911-1.3 3.14-1.3h15.024c0.632 0 1.17 0.222 1.614 0.665s0.665 0.981 0.665 1.614v17.246c0 0.217-0.056 0.414-0.167 0.591s-0.253 0.301-0.427 0.373c-0.406 0.168-0.725 0.442-0.956 0.822s-0.347 0.818-0.347 1.315c0 0.497 0.115 0.934 0.345 1.311s0.548 0.648 0.954 0.812c0.192 0.084 0.34 0.229 0.443 0.437s0.155 0.46 0.155 0.756v0.037c0 0.302-0.107 0.56-0.322 0.774s-0.478 0.32-0.789 0.32h-16.191zM9.556 27.316h13.8c-0.187-0.316-0.333-0.665-0.437-1.047s-0.156-0.773-0.156-1.174c0-0.424 0.053-0.821 0.158-1.192s0.262-0.717 0.469-1.039h-13.831c-0.61 0-1.131 0.216-1.562 0.647s-0.647 0.959-0.647 1.583c0 0.619 0.216 1.144 0.647 1.575s0.951 0.647 1.56 0.647z"></path>
</symbol>
<symbol id="conversion_path" viewBox="0 0 32 32">
<path d="M25.533 28.184c-0.97 0-1.807-0.288-2.511-0.864s-1.148-1.267-1.331-2.071h-6.925c-1.484 0-2.713-0.487-3.687-1.462s-1.461-2.205-1.461-3.69c0-1.48 0.487-2.707 1.461-3.682s2.203-1.462 3.687-1.462h2.567c0.894 0 1.626-0.285 2.196-0.857s0.856-1.303 0.856-2.197-0.285-1.626-0.856-2.196c-0.571-0.57-1.303-0.855-2.196-0.855h-7.017c-0.211 0.804-0.663 1.495-1.356 2.071s-1.525 0.864-2.494 0.864c-1.114 0-2.056-0.385-2.827-1.156s-1.156-1.713-1.156-2.827c0-1.114 0.385-2.057 1.156-2.827s1.713-1.156 2.827-1.156c0.97 0 1.801 0.288 2.494 0.864s1.145 1.267 1.356 2.071h7.017c1.483 0 2.711 0.487 3.686 1.462s1.462 2.203 1.462 3.686-0.487 2.711-1.462 3.686c-0.975 0.974-2.203 1.462-3.686 1.462h-2.567c-0.895 0-1.628 0.285-2.197 0.855s-0.855 1.301-0.855 2.193c0 0.898 0.285 1.631 0.855 2.201s1.302 0.855 2.197 0.855h6.925c0.205-0.804 0.655-1.495 1.348-2.071s1.525-0.864 2.494-0.864c1.114 0 2.056 0.385 2.827 1.156s1.156 1.713 1.156 2.827c0 1.114-0.385 2.057-1.156 2.827s-1.713 1.156-2.827 1.156zM6.466 9.601c0.511 0 0.939-0.172 1.283-0.517s0.517-0.772 0.517-1.283c0-0.511-0.172-0.939-0.517-1.283s-0.772-0.517-1.283-0.517c-0.511 0-0.939 0.172-1.283 0.517s-0.517 0.772-0.517 1.283c0 0.511 0.172 0.939 0.517 1.283s0.772 0.517 1.283 0.517z"></path>
</symbol>
<symbol id="today" viewBox="0 0 32 32">
<path d="M11.808 21.713c-0.907 0-1.672-0.313-2.294-0.939s-0.933-1.393-0.933-2.3c0-0.907 0.313-1.672 0.94-2.294s1.393-0.933 2.3-0.933c0.907 0 1.671 0.313 2.294 0.94s0.933 1.393 0.933 2.3c0 0.907-0.313 1.671-0.939 2.294s-1.393 0.933-2.3 0.933zM6.072 29.532c-0.613 0-1.145-0.225-1.595-0.676s-0.676-0.982-0.676-1.595v-20.523c0-0.616 0.225-1.149 0.676-1.601s0.982-0.678 1.595-0.678h2.095v-0.862c0-0.319 0.111-0.588 0.332-0.808s0.491-0.33 0.808-0.33c0.326 0 0.602 0.11 0.826 0.33s0.336 0.489 0.336 0.808v0.862h11.062v-0.862c0-0.319 0.111-0.588 0.332-0.808s0.491-0.33 0.808-0.33c0.327 0 0.602 0.11 0.826 0.33s0.336 0.489 0.336 0.808v0.862h2.095c0.616 0 1.149 0.226 1.601 0.678s0.678 0.985 0.678 1.601v20.523c0 0.613-0.226 1.145-0.678 1.595s-0.985 0.676-1.601 0.676h-19.857zM6.072 27.261h19.857v-14.262h-19.857v14.262zM6.072 10.999h19.857v-4.262h-19.857v4.262z"></path>
</symbol>
<symbol id="close" viewBox="0 0 32 32">
<path stroke-linejoin="miter" stroke-linecap="butt" stroke-miterlimit="4" stroke-width="1" d="M23.467 7.732c0.259 0 0.439 0.079 0.58 0.221s0.22 0.321 0.22 0.579c0 0.259-0.078 0.439-0.22 0.58l-6.888 6.887 6.888 6.887c0.141 0.142 0.22 0.321 0.22 0.58s-0.078 0.439-0.22 0.58c-0.142 0.142-0.321 0.22-0.58 0.22s-0.439-0.078-0.58-0.22l-6.887-6.888-6.887 6.888c-0.142 0.141-0.321 0.22-0.58 0.22s-0.438-0.078-0.579-0.22c-0.141-0.142-0.221-0.321-0.221-0.58s0.079-0.439 0.221-0.58l6.887-6.887-6.887-6.887c-0.141-0.142-0.221-0.321-0.221-0.58s0.079-0.438 0.221-0.579 0.321-0.221 0.579-0.221c0.259 0 0.439 0.079 0.58 0.221l6.887 6.887 6.887-6.887c0.142-0.141 0.321-0.221 0.58-0.221z"></path>
</symbol>
<symbol id="logout" viewBox="0 0 32 32">
<path d="M6.070 28.2c-0.613 0-1.145-0.225-1.595-0.676s-0.676-0.982-0.676-1.595v-19.857c0-0.616 0.225-1.149 0.676-1.601s0.982-0.678 1.595-0.678h8.807c0.32 0 0.59 0.111 0.808 0.334s0.327 0.495 0.327 0.816c0 0.322-0.109 0.59-0.327 0.806s-0.488 0.323-0.808 0.323h-8.807v19.857h8.807c0.32 0 0.59 0.11 0.808 0.329s0.327 0.49 0.327 0.812c0 0.322-0.109 0.591-0.327 0.806s-0.488 0.323-0.808 0.323h-8.807zM23.855 17.136h-10.768c-0.32 0-0.59-0.11-0.808-0.329s-0.327-0.49-0.327-0.812c0-0.322 0.109-0.591 0.327-0.806s0.488-0.323 0.808-0.323h10.701l-2.564-2.564c-0.227-0.228-0.334-0.495-0.323-0.8s0.13-0.571 0.357-0.795c0.226-0.229 0.496-0.342 0.81-0.34s0.585 0.117 0.815 0.344l4.529 4.529c0.221 0.228 0.332 0.494 0.332 0.797s-0.111 0.568-0.332 0.794l-4.496 4.496c-0.222 0.227-0.486 0.335-0.792 0.327s-0.577-0.126-0.812-0.352c-0.218-0.227-0.329-0.497-0.331-0.811s0.112-0.585 0.344-0.813l2.531-2.539z"></path>
</symbol>
</defs>
</svg>
